<svg xmlns="http://www.w3.org/2000/svg" viewBox="273.60 441.60 168.00 74.40" width="336" height="149" font-family="'Times New Roman', serif"><path d="M329.40 483.84L384.60 511.56" fill="none" fill-opacity="1.00" stroke="#000000" stroke-width="0.60" stroke-linecap="round" stroke-linejoin="round"/><path d="M387.00 452.76L384.48 511.92" fill="none" fill-opacity="1.00" stroke="#000000" stroke-width="0.60" stroke-linecap="round" stroke-linejoin="round"/><path d="M355.44 467.04L359.28 473.04" fill="none" fill-opacity="1.00" stroke="#2d629c" stroke-width="0.36" stroke-linecap="round" stroke-linejoin="round"/><path d="M359.28 464.04L363.00 470.04" fill="none" fill-opacity="1.00" stroke="#2d629c" stroke-width="0.36" stroke-linecap="round" stroke-linejoin="round"/><path d="M381.36 477.36L390.96 477.00" fill="none" fill-opacity="1.00" stroke="#2d629c" stroke-width="0.36" stroke-linecap="round" stroke-linejoin="round"/><path d="M381.36 482.28L390.96 481.92" fill="none" fill-opacity="1.00" stroke="#2d629c" stroke-width="0.36" stroke-linecap="round" stroke-linejoin="round"/><path d="M353.88 490.80L349.20 497.16" fill="none" fill-opacity="1.00" stroke="#2d629c" stroke-width="0.36" stroke-linecap="round" stroke-linejoin="round"/><path d="M358.44 493.92L353.88 500.28" fill="none" fill-opacity="1.00" stroke="#2d629c" stroke-width="0.36" stroke-linecap="round" stroke-linejoin="round"/><path d="M279.12 447.12H438.48V511.56H279.12Z" fill="#ffffff" fill-opacity="1.00" stroke="none" stroke-width="1.00" stroke-linecap="round" stroke-linejoin="round"/><path d="M395.64 447.24L279.24 511.44M279.24 511.44L438.36 511.44" fill="none" fill-opacity="1.00" stroke="#000000" stroke-width="0.60" stroke-linecap="round" stroke-linejoin="round"/><path d="M329.40 483.84L384.60 511.56" fill="none" fill-opacity="1.00" stroke="#000000" stroke-width="0.60" stroke-linecap="round" stroke-linejoin="round"/><path d="M387.00 452.76L384.48 511.92" fill="none" fill-opacity="1.00" stroke="#000000" stroke-width="0.60" stroke-linecap="round" stroke-linejoin="round"/><path d="M355.44 467.04L359.28 473.04" fill="none" fill-opacity="1.00" stroke="#2d629c" stroke-width="0.36" stroke-linecap="round" stroke-linejoin="round"/><path d="M359.28 464.04L363.00 470.04" fill="none" fill-opacity="1.00" stroke="#2d629c" stroke-width="0.36" stroke-linecap="round" stroke-linejoin="round"/><path d="M381.36 477.36L390.96 477.00" fill="none" fill-opacity="1.00" stroke="#2d629c" stroke-width="0.36" stroke-linecap="round" stroke-linejoin="round"/><path d="M381.36 482.28L390.96 481.92" fill="none" fill-opacity="1.00" stroke="#2d629c" stroke-width="0.36" stroke-linecap="round" stroke-linejoin="round"/><path d="M353.88 490.80L349.20 497.16" fill="none" fill-opacity="1.00" stroke="#2d629c" stroke-width="0.36" stroke-linecap="round" stroke-linejoin="round"/><path d="M358.44 493.92L353.88 500.28" fill="none" fill-opacity="1.00" stroke="#2d629c" stroke-width="0.36" stroke-linecap="round" stroke-linejoin="round"/><text x="392.52" y="507.00" font-size="10.0" font-style="normal" fill="#000000">84°</text><text x="298.56" y="507.72" font-size="12.0" font-style="normal" fill="#000000">∠x</text></svg>